<svg xmlns="http://www.w3.org/2000/svg" xmlns:xlink="http://www.w3.org/1999/xlink" width="668.472" height="668.487" viewBox="0 0 668.472 668.487">
  <defs>
    <filter id="Green" x="0" y="0" width="668.472" height="668.487" filterUnits="userSpaceOnUse">
      <feOffset input="SourceAlpha"/>
      <feGaussianBlur stdDeviation="30" result="blur"/>
      <feFlood flood-color="#67c75b" flood-opacity="0.502"/>
      <feComposite operator="in" in2="blur"/>
      <feComposite in="SourceGraphic"/>
    </filter>
  </defs>
  <g id="SVG" transform="translate(-322.5 -205.485)">
    <path id="Gray" d="M289,60h.232c126.6,0,229.236,102.633,229.236,229.236S415.84,518.47,289.236,518.47,60,415.838,60,289.234C60,162.708,162.507,60.124,289,60" transform="translate(367.5 250.502)" fill="none" stroke="#e6e6e6" stroke-linecap="round" stroke-miterlimit="10" stroke-width="10"/>
    <g transform="matrix(1, 0, 0, 1, 322.5, 205.49)" filter="url(#Green)">
      <path id="Green-2" data-name="Green" d="M289,60h.232c126.6,0,229.236,102.633,229.236,229.236S415.84,518.47,289.236,518.47,60,415.838,60,289.234C60,162.708,162.507,60.124,289,60" transform="translate(45 45.02)" fill="none" stroke="#67c75b" stroke-linecap="round" stroke-miterlimit="10" stroke-width="30"/>
    </g>
  </g>
</svg>
